<svg xmlns="http://www.w3.org/2000/svg" viewBox="0 0 258 258"><defs><style>.cls-1{fill:#1a1a1a;stroke:#1a1a1a;stroke-linecap:round;stroke-linejoin:round;stroke-width:2px;}.cls-2{fill:#fff;}</style></defs><g id="Layer_2" data-name="Layer 2"><g id="LOGO"><rect class="cls-1" x="1" y="1" width="256" height="256" rx="15.16"/><circle class="cls-2" cx="150.45" cy="31.84" r="11.64"/><path class="cls-2" d="M115.06,216l-.08-.13c-42.91-6.8-75.8-42.51-75.8-87.34,0-45.73,31.63-79.3,74.15-87.56a7.17,7.17,0,0,1,1.45-.4,7,7,0,0,1,.79-.35v0a10.75,10.75,0,0,0-8.13-19.9,4,4,0,0,0-.83.09,110.56,110.56,0,0,0-87.8,108.17c0,54,34.94,98.51,85.57,108.16.2,0,.39,0,.59,0a7.79,7.79,0,0,1,2,.29c.15,0,.3,0,.44.06l1.48.12.21,0a8.19,8.19,0,0,1,1.77.2h.22a8,8,0,0,1,1.33.11l0-.06a10.47,10.47,0,0,0,1.6.13,10.76,10.76,0,0,0,1-21.48Z"/><circle class="cls-2" cx="214.45" cy="75.47" r="11.64"/><circle class="cls-2" cx="186.82" cy="46.38" r="11.64"/><circle class="cls-2" cx="227.55" cy="110.38" r="11.64"/><circle class="cls-2" cx="227.55" cy="146.75" r="11.64"/><circle class="cls-2" cx="213" cy="181.65" r="11.64"/><circle class="cls-2" cx="185.36" cy="210.75" r="11.64"/><circle class="cls-2" cx="149" cy="226.75" r="11.64"/></g></g></svg>
